<svg width="18" height="18" viewBox="0 0 18 18" fill="none" xmlns="http://www.w3.org/2000/svg">
<g clip-path="url(#clip0_1_1986)">
<g clip-path="url(#clip1_1_1986)">
<path d="M16.509 2.45501C16.0441 1.98624 15.491 1.61415 14.8815 1.36019C14.2721 1.10623 13.6184 0.975439 12.9582 0.975346C12.298 0.975253 11.6443 1.10586 11.0348 1.35965C10.4253 1.61343 9.87207 1.98537 9.40701 2.45401L9.00001 2.86401L8.59301 2.45401C8.12796 1.98542 7.57476 1.61352 6.96531 1.35972C6.35586 1.10593 5.7022 0.975266 5.04201 0.975266C4.38183 0.975266 3.72817 1.10593 3.11872 1.35972C2.50926 1.61352 1.95607 1.98542 1.49101 2.45401C1.01681 2.929 0.641018 3.49292 0.385163 4.11342C0.129308 4.73393 -0.0015758 5.39882 1.43165e-05 6.07001C1.43165e-05 7.43501 0.530014 8.71801 1.49101 9.68701L8.56501 16.798C8.62165 16.8561 8.68929 16.9022 8.76398 16.9338C8.83867 16.9654 8.91892 16.9818 9.00001 16.982C9.0811 16.9817 9.16133 16.9653 9.23601 16.9337C9.3107 16.9021 9.37834 16.856 9.43501 16.798L16.509 9.68801C16.9834 9.21274 17.3593 8.64849 17.6152 8.02764C17.871 7.40678 18.0018 6.74152 18 6.07001C18.0018 5.39865 17.871 4.73354 17.6151 4.11285C17.3593 3.49216 16.9834 2.92809 16.509 2.45301V2.45501ZM15.639 8.71801L9.00001 15.391L2.36201 8.71801C2.01349 8.37081 1.73695 7.95821 1.54825 7.50389C1.35955 7.04957 1.26242 6.56246 1.26242 6.07051C1.26242 5.57855 1.35955 5.09144 1.54825 4.63712C1.73695 4.1828 2.01349 3.7702 2.36201 3.42301C2.71261 3.06883 3.13004 2.78781 3.59009 2.59623C4.05015 2.40466 4.54367 2.30635 5.04201 2.30701C6.01201 2.30701 6.98401 2.67901 7.72201 3.42401L8.56501 4.27101C8.6215 4.32925 8.68912 4.37555 8.76384 4.40718C8.83856 4.4388 8.91888 4.45509 9.00001 4.45509C9.08115 4.45509 9.16147 4.4388 9.23619 4.40718C9.31091 4.37555 9.37852 4.32925 9.43501 4.27101L10.277 3.42301C10.628 3.06923 11.0456 2.78843 11.5057 2.59681C11.9657 2.40519 12.4591 2.30653 12.9575 2.30653C13.4559 2.30653 13.9493 2.40519 14.4094 2.59681C14.8694 2.78843 15.287 3.06923 15.638 3.42301C15.9864 3.77027 16.2629 4.18289 16.4515 4.6372C16.6401 5.09152 16.7372 5.57859 16.7372 6.07051C16.7372 6.56242 16.6401 7.0495 16.4515 7.50381C16.2629 7.95812 15.9864 8.37074 15.638 8.71801H15.639Z" fill="#222222"/>
</g>
</g>
<defs>
<clipPath id="clip0_1_1986">
<rect width="18" height="18" fill="white"/>
</clipPath>
<clipPath id="clip1_1_1986">
<rect width="18" height="18" fill="white"/>
</clipPath>
</defs>
</svg>
